<svg xmlns="http://www.w3.org/2000/svg" viewBox="0 0 1200 600" role="img" aria-labelledby="title desc"><title id="title">حافلة النور على طريق يمني</title><desc id="desc">صورة توضيحية لغلاف شركة النور للنقل</desc><defs><linearGradient id="sky" x1="0" y1="0" x2="1" y2="1"><stop stop-color="#1e40af"/><stop offset=".55" stop-color="#3b82f6"/><stop offset="1" stop-color="#0f172a"/></linearGradient><linearGradient id="road" x1="0" y1="0" x2="1" y2="0"><stop stop-color="#334155"/><stop offset="1" stop-color="#0f172a"/></linearGradient></defs><rect width="1200" height="600" fill="url(#sky)"/><circle cx="1000" cy="120" r="90" fill="#fef3c7" opacity=".85"/><path d="M0 370 Q220 260 430 370 T850 340 T1200 310 V600 H0Z" fill="#166534" opacity=".65"/><path d="M0 470 Q300 390 590 460 T1200 410 V600 H0Z" fill="url(#road)"/><path d="M0 520 H1200" stroke="#f8fafc" stroke-width="7" stroke-dasharray="60 36" opacity=".7"/><g transform="translate(300 260)"><rect x="0" y="80" width="600" height="180" rx="28" fill="#f8fafc" stroke="#0f172a" stroke-width="8"/><rect x="38" y="110" width="390" height="82" rx="12" fill="#bfdbfe" stroke="#1e3a8a" stroke-width="6"/><rect x="450" y="110" width="108" height="82" rx="12" fill="#93c5fd" stroke="#1e3a8a" stroke-width="6"/><rect x="20" y="200" width="560" height="28" rx="12" fill="#1d4ed8"/><circle cx="125" cy="276" r="38" fill="#111827" stroke="#e2e8f0" stroke-width="9"/><circle cx="485" cy="276" r="38" fill="#111827" stroke="#e2e8f0" stroke-width="9"/><text x="300" y="245" text-anchor="middle" font-family="Arial,sans-serif" font-size="30" font-weight="700" fill="#ffffff">النور للنقل</text></g><text x="600" y="90" text-anchor="middle" fill="#fff" font-family="Arial,sans-serif" font-size="42" font-weight="700">رحلة آمنة بين المدن</text></svg>
